G75*
G70*
%OFA0B0*%
%FSLAX24Y24*%
%IPPOS*%
%LPD*%
%AMOC8*
5,1,8,0,0,1.08239X$1,22.5*
%
%ADD10C,0.0000*%
%ADD11C,0.0780*%
%ADD12R,0.0290X0.0540*%
%ADD13R,0.0434X0.0473*%
%ADD14R,0.1640X0.0640*%
%ADD15C,0.1340*%
%ADD16R,0.0780X0.0780*%
%ADD17C,0.2040*%
%ADD18R,0.0276X0.0512*%
%ADD19R,0.0670X0.0591*%
%ADD20R,0.0591X0.0670*%
%ADD21R,0.0473X0.0434*%
%ADD22C,0.1740*%
%ADD23C,0.1320*%
%ADD24R,0.0177X0.0590*%
D10*
X002504Y000463D02*
X027676Y000463D01*
X027750Y000465D01*
X027824Y000471D01*
X027897Y000480D01*
X027970Y000494D01*
X028042Y000511D01*
X028113Y000532D01*
X028183Y000557D01*
X028251Y000585D01*
X028318Y000617D01*
X028383Y000652D01*
X028446Y000691D01*
X028507Y000733D01*
X028566Y000778D01*
X028622Y000826D01*
X028676Y000877D01*
X028727Y000931D01*
X028775Y000987D01*
X028820Y001046D01*
X028862Y001107D01*
X028901Y001170D01*
X028936Y001235D01*
X028968Y001302D01*
X028996Y001370D01*
X029021Y001440D01*
X029042Y001511D01*
X029059Y001583D01*
X029073Y001656D01*
X029082Y001729D01*
X029088Y001803D01*
X029090Y001877D01*
X029090Y017049D01*
X029088Y017123D01*
X029082Y017197D01*
X029073Y017270D01*
X029059Y017343D01*
X029042Y017415D01*
X029021Y017486D01*
X028996Y017556D01*
X028968Y017624D01*
X028936Y017691D01*
X028901Y017756D01*
X028862Y017819D01*
X028820Y017880D01*
X028775Y017939D01*
X028727Y017995D01*
X028676Y018049D01*
X028622Y018100D01*
X028566Y018148D01*
X028507Y018193D01*
X028446Y018235D01*
X028383Y018274D01*
X028318Y018309D01*
X028251Y018341D01*
X028183Y018369D01*
X028113Y018394D01*
X028042Y018415D01*
X027970Y018432D01*
X027897Y018446D01*
X027824Y018455D01*
X027750Y018461D01*
X027676Y018463D01*
X002504Y018463D01*
X002430Y018461D01*
X002356Y018455D01*
X002283Y018446D01*
X002210Y018432D01*
X002138Y018415D01*
X002067Y018394D01*
X001997Y018369D01*
X001929Y018341D01*
X001862Y018309D01*
X001797Y018274D01*
X001734Y018235D01*
X001673Y018193D01*
X001614Y018148D01*
X001558Y018100D01*
X001504Y018049D01*
X001453Y017995D01*
X001405Y017939D01*
X001360Y017880D01*
X001318Y017819D01*
X001279Y017756D01*
X001244Y017691D01*
X001212Y017624D01*
X001184Y017556D01*
X001159Y017486D01*
X001138Y017415D01*
X001121Y017343D01*
X001107Y017270D01*
X001098Y017197D01*
X001092Y017123D01*
X001090Y017049D01*
X001090Y001877D01*
X001092Y001803D01*
X001098Y001729D01*
X001107Y001656D01*
X001121Y001583D01*
X001138Y001511D01*
X001159Y001440D01*
X001184Y001370D01*
X001212Y001302D01*
X001244Y001235D01*
X001279Y001170D01*
X001318Y001107D01*
X001360Y001046D01*
X001405Y000987D01*
X001453Y000931D01*
X001504Y000877D01*
X001558Y000826D01*
X001614Y000778D01*
X001673Y000733D01*
X001734Y000691D01*
X001797Y000652D01*
X001862Y000617D01*
X001929Y000585D01*
X001997Y000557D01*
X002067Y000532D01*
X002138Y000511D01*
X002210Y000494D01*
X002283Y000480D01*
X002356Y000471D01*
X002430Y000465D01*
X002504Y000463D01*
X001940Y001963D02*
X001942Y002013D01*
X001948Y002063D01*
X001958Y002113D01*
X001971Y002161D01*
X001988Y002209D01*
X002009Y002255D01*
X002033Y002299D01*
X002061Y002341D01*
X002092Y002381D01*
X002126Y002418D01*
X002163Y002453D01*
X002202Y002484D01*
X002243Y002513D01*
X002287Y002538D01*
X002333Y002560D01*
X002380Y002578D01*
X002428Y002592D01*
X002477Y002603D01*
X002527Y002610D01*
X002577Y002613D01*
X002628Y002612D01*
X002678Y002607D01*
X002728Y002598D01*
X002776Y002586D01*
X002824Y002569D01*
X002870Y002549D01*
X002915Y002526D01*
X002958Y002499D01*
X002998Y002469D01*
X003036Y002436D01*
X003071Y002400D01*
X003104Y002361D01*
X003133Y002320D01*
X003159Y002277D01*
X003182Y002232D01*
X003201Y002185D01*
X003216Y002137D01*
X003228Y002088D01*
X003236Y002038D01*
X003240Y001988D01*
X003240Y001938D01*
X003236Y001888D01*
X003228Y001838D01*
X003216Y001789D01*
X003201Y001741D01*
X003182Y001694D01*
X003159Y001649D01*
X003133Y001606D01*
X003104Y001565D01*
X003071Y001526D01*
X003036Y001490D01*
X002998Y001457D01*
X002958Y001427D01*
X002915Y001400D01*
X002870Y001377D01*
X002824Y001357D01*
X002776Y001340D01*
X002728Y001328D01*
X002678Y001319D01*
X002628Y001314D01*
X002577Y001313D01*
X002527Y001316D01*
X002477Y001323D01*
X002428Y001334D01*
X002380Y001348D01*
X002333Y001366D01*
X002287Y001388D01*
X002243Y001413D01*
X002202Y001442D01*
X002163Y001473D01*
X002126Y001508D01*
X002092Y001545D01*
X002061Y001585D01*
X002033Y001627D01*
X002009Y001671D01*
X001988Y001717D01*
X001971Y001765D01*
X001958Y001813D01*
X001948Y001863D01*
X001942Y001913D01*
X001940Y001963D01*
X002700Y010713D02*
X002702Y010763D01*
X002708Y010813D01*
X002718Y010862D01*
X002731Y010911D01*
X002749Y010958D01*
X002770Y011004D01*
X002794Y011047D01*
X002822Y011089D01*
X002853Y011129D01*
X002887Y011166D01*
X002924Y011200D01*
X002964Y011231D01*
X003006Y011259D01*
X003049Y011283D01*
X003095Y011304D01*
X003142Y011322D01*
X003191Y011335D01*
X003240Y011345D01*
X003290Y011351D01*
X003340Y011353D01*
X003390Y011351D01*
X003440Y011345D01*
X003489Y011335D01*
X003538Y011322D01*
X003585Y011304D01*
X003631Y011283D01*
X003674Y011259D01*
X003716Y011231D01*
X003756Y011200D01*
X003793Y011166D01*
X003827Y011129D01*
X003858Y011089D01*
X003886Y011047D01*
X003910Y011004D01*
X003931Y010958D01*
X003949Y010911D01*
X003962Y010862D01*
X003972Y010813D01*
X003978Y010763D01*
X003980Y010713D01*
X003978Y010663D01*
X003972Y010613D01*
X003962Y010564D01*
X003949Y010515D01*
X003931Y010468D01*
X003910Y010422D01*
X003886Y010379D01*
X003858Y010337D01*
X003827Y010297D01*
X003793Y010260D01*
X003756Y010226D01*
X003716Y010195D01*
X003674Y010167D01*
X003631Y010143D01*
X003585Y010122D01*
X003538Y010104D01*
X003489Y010091D01*
X003440Y010081D01*
X003390Y010075D01*
X003340Y010073D01*
X003290Y010075D01*
X003240Y010081D01*
X003191Y010091D01*
X003142Y010104D01*
X003095Y010122D01*
X003049Y010143D01*
X003006Y010167D01*
X002964Y010195D01*
X002924Y010226D01*
X002887Y010260D01*
X002853Y010297D01*
X002822Y010337D01*
X002794Y010379D01*
X002770Y010422D01*
X002749Y010468D01*
X002731Y010515D01*
X002718Y010564D01*
X002708Y010613D01*
X002702Y010663D01*
X002700Y010713D01*
X002700Y014713D02*
X002702Y014763D01*
X002708Y014813D01*
X002718Y014862D01*
X002731Y014911D01*
X002749Y014958D01*
X002770Y015004D01*
X002794Y015047D01*
X002822Y015089D01*
X002853Y015129D01*
X002887Y015166D01*
X002924Y015200D01*
X002964Y015231D01*
X003006Y015259D01*
X003049Y015283D01*
X003095Y015304D01*
X003142Y015322D01*
X003191Y015335D01*
X003240Y015345D01*
X003290Y015351D01*
X003340Y015353D01*
X003390Y015351D01*
X003440Y015345D01*
X003489Y015335D01*
X003538Y015322D01*
X003585Y015304D01*
X003631Y015283D01*
X003674Y015259D01*
X003716Y015231D01*
X003756Y015200D01*
X003793Y015166D01*
X003827Y015129D01*
X003858Y015089D01*
X003886Y015047D01*
X003910Y015004D01*
X003931Y014958D01*
X003949Y014911D01*
X003962Y014862D01*
X003972Y014813D01*
X003978Y014763D01*
X003980Y014713D01*
X003978Y014663D01*
X003972Y014613D01*
X003962Y014564D01*
X003949Y014515D01*
X003931Y014468D01*
X003910Y014422D01*
X003886Y014379D01*
X003858Y014337D01*
X003827Y014297D01*
X003793Y014260D01*
X003756Y014226D01*
X003716Y014195D01*
X003674Y014167D01*
X003631Y014143D01*
X003585Y014122D01*
X003538Y014104D01*
X003489Y014091D01*
X003440Y014081D01*
X003390Y014075D01*
X003340Y014073D01*
X003290Y014075D01*
X003240Y014081D01*
X003191Y014091D01*
X003142Y014104D01*
X003095Y014122D01*
X003049Y014143D01*
X003006Y014167D01*
X002964Y014195D01*
X002924Y014226D01*
X002887Y014260D01*
X002853Y014297D01*
X002822Y014337D01*
X002794Y014379D01*
X002770Y014422D01*
X002749Y014468D01*
X002731Y014515D01*
X002718Y014564D01*
X002708Y014613D01*
X002702Y014663D01*
X002700Y014713D01*
X001940Y016963D02*
X001942Y017013D01*
X001948Y017063D01*
X001958Y017113D01*
X001971Y017161D01*
X001988Y017209D01*
X002009Y017255D01*
X002033Y017299D01*
X002061Y017341D01*
X002092Y017381D01*
X002126Y017418D01*
X002163Y017453D01*
X002202Y017484D01*
X002243Y017513D01*
X002287Y017538D01*
X002333Y017560D01*
X002380Y017578D01*
X002428Y017592D01*
X002477Y017603D01*
X002527Y017610D01*
X002577Y017613D01*
X002628Y017612D01*
X002678Y017607D01*
X002728Y017598D01*
X002776Y017586D01*
X002824Y017569D01*
X002870Y017549D01*
X002915Y017526D01*
X002958Y017499D01*
X002998Y017469D01*
X003036Y017436D01*
X003071Y017400D01*
X003104Y017361D01*
X003133Y017320D01*
X003159Y017277D01*
X003182Y017232D01*
X003201Y017185D01*
X003216Y017137D01*
X003228Y017088D01*
X003236Y017038D01*
X003240Y016988D01*
X003240Y016938D01*
X003236Y016888D01*
X003228Y016838D01*
X003216Y016789D01*
X003201Y016741D01*
X003182Y016694D01*
X003159Y016649D01*
X003133Y016606D01*
X003104Y016565D01*
X003071Y016526D01*
X003036Y016490D01*
X002998Y016457D01*
X002958Y016427D01*
X002915Y016400D01*
X002870Y016377D01*
X002824Y016357D01*
X002776Y016340D01*
X002728Y016328D01*
X002678Y016319D01*
X002628Y016314D01*
X002577Y016313D01*
X002527Y016316D01*
X002477Y016323D01*
X002428Y016334D01*
X002380Y016348D01*
X002333Y016366D01*
X002287Y016388D01*
X002243Y016413D01*
X002202Y016442D01*
X002163Y016473D01*
X002126Y016508D01*
X002092Y016545D01*
X002061Y016585D01*
X002033Y016627D01*
X002009Y016671D01*
X001988Y016717D01*
X001971Y016765D01*
X001958Y016813D01*
X001948Y016863D01*
X001942Y016913D01*
X001940Y016963D01*
X026940Y016963D02*
X026942Y017013D01*
X026948Y017063D01*
X026958Y017113D01*
X026971Y017161D01*
X026988Y017209D01*
X027009Y017255D01*
X027033Y017299D01*
X027061Y017341D01*
X027092Y017381D01*
X027126Y017418D01*
X027163Y017453D01*
X027202Y017484D01*
X027243Y017513D01*
X027287Y017538D01*
X027333Y017560D01*
X027380Y017578D01*
X027428Y017592D01*
X027477Y017603D01*
X027527Y017610D01*
X027577Y017613D01*
X027628Y017612D01*
X027678Y017607D01*
X027728Y017598D01*
X027776Y017586D01*
X027824Y017569D01*
X027870Y017549D01*
X027915Y017526D01*
X027958Y017499D01*
X027998Y017469D01*
X028036Y017436D01*
X028071Y017400D01*
X028104Y017361D01*
X028133Y017320D01*
X028159Y017277D01*
X028182Y017232D01*
X028201Y017185D01*
X028216Y017137D01*
X028228Y017088D01*
X028236Y017038D01*
X028240Y016988D01*
X028240Y016938D01*
X028236Y016888D01*
X028228Y016838D01*
X028216Y016789D01*
X028201Y016741D01*
X028182Y016694D01*
X028159Y016649D01*
X028133Y016606D01*
X028104Y016565D01*
X028071Y016526D01*
X028036Y016490D01*
X027998Y016457D01*
X027958Y016427D01*
X027915Y016400D01*
X027870Y016377D01*
X027824Y016357D01*
X027776Y016340D01*
X027728Y016328D01*
X027678Y016319D01*
X027628Y016314D01*
X027577Y016313D01*
X027527Y016316D01*
X027477Y016323D01*
X027428Y016334D01*
X027380Y016348D01*
X027333Y016366D01*
X027287Y016388D01*
X027243Y016413D01*
X027202Y016442D01*
X027163Y016473D01*
X027126Y016508D01*
X027092Y016545D01*
X027061Y016585D01*
X027033Y016627D01*
X027009Y016671D01*
X026988Y016717D01*
X026971Y016765D01*
X026958Y016813D01*
X026948Y016863D01*
X026942Y016913D01*
X026940Y016963D01*
X026940Y001963D02*
X026942Y002013D01*
X026948Y002063D01*
X026958Y002113D01*
X026971Y002161D01*
X026988Y002209D01*
X027009Y002255D01*
X027033Y002299D01*
X027061Y002341D01*
X027092Y002381D01*
X027126Y002418D01*
X027163Y002453D01*
X027202Y002484D01*
X027243Y002513D01*
X027287Y002538D01*
X027333Y002560D01*
X027380Y002578D01*
X027428Y002592D01*
X027477Y002603D01*
X027527Y002610D01*
X027577Y002613D01*
X027628Y002612D01*
X027678Y002607D01*
X027728Y002598D01*
X027776Y002586D01*
X027824Y002569D01*
X027870Y002549D01*
X027915Y002526D01*
X027958Y002499D01*
X027998Y002469D01*
X028036Y002436D01*
X028071Y002400D01*
X028104Y002361D01*
X028133Y002320D01*
X028159Y002277D01*
X028182Y002232D01*
X028201Y002185D01*
X028216Y002137D01*
X028228Y002088D01*
X028236Y002038D01*
X028240Y001988D01*
X028240Y001938D01*
X028236Y001888D01*
X028228Y001838D01*
X028216Y001789D01*
X028201Y001741D01*
X028182Y001694D01*
X028159Y001649D01*
X028133Y001606D01*
X028104Y001565D01*
X028071Y001526D01*
X028036Y001490D01*
X027998Y001457D01*
X027958Y001427D01*
X027915Y001400D01*
X027870Y001377D01*
X027824Y001357D01*
X027776Y001340D01*
X027728Y001328D01*
X027678Y001319D01*
X027628Y001314D01*
X027577Y001313D01*
X027527Y001316D01*
X027477Y001323D01*
X027428Y001334D01*
X027380Y001348D01*
X027333Y001366D01*
X027287Y001388D01*
X027243Y001413D01*
X027202Y001442D01*
X027163Y001473D01*
X027126Y001508D01*
X027092Y001545D01*
X027061Y001585D01*
X027033Y001627D01*
X027009Y001671D01*
X026988Y001717D01*
X026971Y001765D01*
X026958Y001813D01*
X026948Y001863D01*
X026942Y001913D01*
X026940Y001963D01*
D11*
X027031Y007282D03*
X028149Y007829D03*
X027031Y008372D03*
X028149Y008920D03*
X027031Y009463D03*
X028149Y010006D03*
X027031Y010553D03*
X028149Y011097D03*
X024590Y017463D03*
X023590Y017463D03*
X022590Y017463D03*
X021590Y017463D03*
X020590Y017463D03*
X019590Y017463D03*
X016090Y017463D03*
X015090Y017463D03*
X014090Y017463D03*
X006840Y013963D03*
X005840Y013463D03*
X006840Y012963D03*
X005840Y012463D03*
X006840Y011963D03*
X005840Y011463D03*
D12*
X021913Y014463D03*
X022267Y014463D03*
D13*
X007590Y016628D03*
X007590Y017297D03*
X005840Y017297D03*
X005840Y016628D03*
X018840Y003297D03*
X018840Y002628D03*
X017090Y002047D03*
X017090Y001378D03*
D14*
X002090Y005963D03*
X002090Y007963D03*
D15*
X002590Y001963D03*
X027590Y001963D03*
X027590Y016963D03*
X002590Y016963D03*
D16*
X027031Y011644D03*
D17*
X027590Y014384D03*
X027590Y004542D03*
D18*
X025090Y008610D03*
X024590Y008610D03*
X024090Y008610D03*
X023590Y008610D03*
X023090Y008610D03*
X022590Y008610D03*
X022090Y008610D03*
X021590Y008610D03*
X021590Y010815D03*
X022090Y010815D03*
X022590Y010815D03*
X023090Y010815D03*
X023590Y010815D03*
X024090Y010815D03*
X024590Y010815D03*
X025090Y010815D03*
D19*
X022090Y007514D03*
X022090Y006412D03*
D20*
X014891Y001463D03*
X013789Y001463D03*
X020789Y011713D03*
X021891Y011713D03*
X023289Y011713D03*
X024391Y011713D03*
D21*
X024755Y006963D03*
X025425Y006963D03*
X024675Y005963D03*
X024005Y005963D03*
X016425Y001463D03*
X015755Y001463D03*
X012425Y004963D03*
X011755Y004963D03*
D22*
X010590Y014069D03*
X008740Y015250D03*
X010590Y016431D03*
D23*
X003340Y014713D03*
X003340Y010713D03*
D24*
X013427Y006152D03*
X013683Y006152D03*
X013938Y006152D03*
X014194Y006152D03*
X014450Y006152D03*
X014706Y006152D03*
X014962Y006152D03*
X015218Y006152D03*
X015474Y006152D03*
X015730Y006152D03*
X015986Y006152D03*
X016242Y006152D03*
X016497Y006152D03*
X016753Y006152D03*
X016753Y003273D03*
X016497Y003273D03*
X016242Y003273D03*
X015986Y003273D03*
X015730Y003273D03*
X015474Y003273D03*
X015218Y003273D03*
X014962Y003273D03*
X014706Y003273D03*
X014450Y003273D03*
X014194Y003273D03*
X013938Y003273D03*
X013683Y003273D03*
X013427Y003273D03*
M02*
