%
M48
M72
T01C0.0130
T02C0.0150
T03C0.0197
T04C0.0354
T05C0.0400
T06C0.1180
T07C0.1280
T08C0.1300
%
T01
X18840Y1713
X5590Y3713
X5590Y4463
X5590Y5963
X5590Y5213
X5590Y6713
X5590Y7463
X1590Y8713
X2340Y8713
X3090Y8713
X3840Y8713
X4090Y8213
X4840Y8213
X5590Y8213
X6340Y8213
X7090Y8213
X7840Y3713
X7840Y4463
X7840Y5963
X7840Y5213
X7840Y6713
X7840Y7463
X7840Y2963
X7090Y2963
X6340Y2963
X5590Y2963
X4840Y2963
X6340Y3713
X6340Y4463
X6340Y5963
X6340Y5213
X6340Y6713
X6340Y7463
X7090Y3713
X7090Y4463
X7090Y5963
X7090Y5213
X7090Y6713
X7090Y7463
X1590Y5213
X2340Y5213
X3090Y5213
X4090Y3213
X9090Y11963
X9090Y10963
X16090Y3963
X12840Y1963
X18090Y6463
X18090Y6963
X19090Y9463
X17090Y12463
X22340Y12963
X22840Y13713
X11590Y8713
X12090Y11963
X12840Y11463
X17590Y13463
X14090Y14213
X13090Y6463
X13840Y10713
X14840Y10713
X13840Y9713
X24090Y7463
X23090Y2463
X23590Y2463
X24590Y2463
X20340Y15713
X21090Y10713
X17590Y3963
X9340Y8463
X19090Y8963
X26340Y8963
X7840Y7963
X14840Y9463
X23590Y13463
X20840Y16713
X19090Y13713
X15340Y9963
X18840Y14213
X20090Y13463
X22590Y15963
X4840Y17713
X10090Y3963
X11840Y9963
X14340Y12463
X11090Y8213
X20090Y3963
X21090Y6963
X9340Y5213
X9090Y1963
X12590Y6463
X16590Y9213
X12340Y6713
X16340Y8713
X24090Y10213
X22090Y9713
X21840Y3213
X24840Y7963
X25340Y5963
X21590Y3713
X19090Y7963
X18090Y8213
X6590Y17713
X15090Y4463
X16840Y2713
X14840Y2463
X15590Y7713
X15340Y6713
X11840Y4213
X16840Y4963
X13340Y4963
X18340Y4213
X8090Y10713
X7340Y9963
X16090Y12213
X18340Y14463
X12840Y16463
X11590Y17713
T02
X25840Y11713
T03
X11090Y5963
X20840Y9213
T04
X14224Y2463
X15956Y2463
T05
X24590Y17463
X23590Y17463
X22590Y17463
X21590Y17463
X20590Y17463
X19590Y17463
X27031Y11644
X27031Y10553
X27031Y9463
X27031Y8372
X27031Y7282
X28149Y11097
X28149Y10006
X28149Y8920
X28149Y7829
X16090Y17463
X15090Y17463
X14090Y17463
X6840Y13963
X5840Y13463
X6840Y12963
X5840Y12463
X6840Y11963
X5840Y11463
T06
X10590Y14069
X10590Y16431
X8740Y15250
T07
X3340Y14713
X3340Y10713
T08
X2590Y1963
X27590Y1963
X2590Y16963
X27590Y16963
X27590Y14384
X27590Y4542
M30
