G75*
G70*
%OFA0B0*%
%FSLAX24Y24*%
%IPPOS*%
%LPD*%
%AMOC8*
5,1,8,0,0,1.08239X$1,22.5*
%
%ADD10C,0.0000*%
%ADD11C,0.0040*%
%ADD12C,0.0080*%
%ADD13C,0.0010*%
%ADD14R,0.0300X0.0180*%
%ADD15C,0.0020*%
%ADD16C,0.0050*%
%ADD17R,0.0180X0.0300*%
%ADD18C,0.0060*%
%ADD19C,0.0220*%
D10*
X002504Y000463D02*
X027676Y000463D01*
X027750Y000465D01*
X027824Y000471D01*
X027897Y000480D01*
X027970Y000494D01*
X028042Y000511D01*
X028113Y000532D01*
X028183Y000557D01*
X028251Y000585D01*
X028318Y000617D01*
X028383Y000652D01*
X028446Y000691D01*
X028507Y000733D01*
X028566Y000778D01*
X028622Y000826D01*
X028676Y000877D01*
X028727Y000931D01*
X028775Y000987D01*
X028820Y001046D01*
X028862Y001107D01*
X028901Y001170D01*
X028936Y001235D01*
X028968Y001302D01*
X028996Y001370D01*
X029021Y001440D01*
X029042Y001511D01*
X029059Y001583D01*
X029073Y001656D01*
X029082Y001729D01*
X029088Y001803D01*
X029090Y001877D01*
X029090Y017049D01*
X029088Y017123D01*
X029082Y017197D01*
X029073Y017270D01*
X029059Y017343D01*
X029042Y017415D01*
X029021Y017486D01*
X028996Y017556D01*
X028968Y017624D01*
X028936Y017691D01*
X028901Y017756D01*
X028862Y017819D01*
X028820Y017880D01*
X028775Y017939D01*
X028727Y017995D01*
X028676Y018049D01*
X028622Y018100D01*
X028566Y018148D01*
X028507Y018193D01*
X028446Y018235D01*
X028383Y018274D01*
X028318Y018309D01*
X028251Y018341D01*
X028183Y018369D01*
X028113Y018394D01*
X028042Y018415D01*
X027970Y018432D01*
X027897Y018446D01*
X027824Y018455D01*
X027750Y018461D01*
X027676Y018463D01*
X002504Y018463D01*
X002430Y018461D01*
X002356Y018455D01*
X002283Y018446D01*
X002210Y018432D01*
X002138Y018415D01*
X002067Y018394D01*
X001997Y018369D01*
X001929Y018341D01*
X001862Y018309D01*
X001797Y018274D01*
X001734Y018235D01*
X001673Y018193D01*
X001614Y018148D01*
X001558Y018100D01*
X001504Y018049D01*
X001453Y017995D01*
X001405Y017939D01*
X001360Y017880D01*
X001318Y017819D01*
X001279Y017756D01*
X001244Y017691D01*
X001212Y017624D01*
X001184Y017556D01*
X001159Y017486D01*
X001138Y017415D01*
X001121Y017343D01*
X001107Y017270D01*
X001098Y017197D01*
X001092Y017123D01*
X001090Y017049D01*
X001090Y001877D01*
X001092Y001803D01*
X001098Y001729D01*
X001107Y001656D01*
X001121Y001583D01*
X001138Y001511D01*
X001159Y001440D01*
X001184Y001370D01*
X001212Y001302D01*
X001244Y001235D01*
X001279Y001170D01*
X001318Y001107D01*
X001360Y001046D01*
X001405Y000987D01*
X001453Y000931D01*
X001504Y000877D01*
X001558Y000826D01*
X001614Y000778D01*
X001673Y000733D01*
X001734Y000691D01*
X001797Y000652D01*
X001862Y000617D01*
X001929Y000585D01*
X001997Y000557D01*
X002067Y000532D01*
X002138Y000511D01*
X002210Y000494D01*
X002283Y000480D01*
X002356Y000471D01*
X002430Y000465D01*
X002504Y000463D01*
X001940Y001963D02*
X001942Y002013D01*
X001948Y002063D01*
X001958Y002113D01*
X001971Y002161D01*
X001988Y002209D01*
X002009Y002255D01*
X002033Y002299D01*
X002061Y002341D01*
X002092Y002381D01*
X002126Y002418D01*
X002163Y002453D01*
X002202Y002484D01*
X002243Y002513D01*
X002287Y002538D01*
X002333Y002560D01*
X002380Y002578D01*
X002428Y002592D01*
X002477Y002603D01*
X002527Y002610D01*
X002577Y002613D01*
X002628Y002612D01*
X002678Y002607D01*
X002728Y002598D01*
X002776Y002586D01*
X002824Y002569D01*
X002870Y002549D01*
X002915Y002526D01*
X002958Y002499D01*
X002998Y002469D01*
X003036Y002436D01*
X003071Y002400D01*
X003104Y002361D01*
X003133Y002320D01*
X003159Y002277D01*
X003182Y002232D01*
X003201Y002185D01*
X003216Y002137D01*
X003228Y002088D01*
X003236Y002038D01*
X003240Y001988D01*
X003240Y001938D01*
X003236Y001888D01*
X003228Y001838D01*
X003216Y001789D01*
X003201Y001741D01*
X003182Y001694D01*
X003159Y001649D01*
X003133Y001606D01*
X003104Y001565D01*
X003071Y001526D01*
X003036Y001490D01*
X002998Y001457D01*
X002958Y001427D01*
X002915Y001400D01*
X002870Y001377D01*
X002824Y001357D01*
X002776Y001340D01*
X002728Y001328D01*
X002678Y001319D01*
X002628Y001314D01*
X002577Y001313D01*
X002527Y001316D01*
X002477Y001323D01*
X002428Y001334D01*
X002380Y001348D01*
X002333Y001366D01*
X002287Y001388D01*
X002243Y001413D01*
X002202Y001442D01*
X002163Y001473D01*
X002126Y001508D01*
X002092Y001545D01*
X002061Y001585D01*
X002033Y001627D01*
X002009Y001671D01*
X001988Y001717D01*
X001971Y001765D01*
X001958Y001813D01*
X001948Y001863D01*
X001942Y001913D01*
X001940Y001963D01*
X002700Y010713D02*
X002702Y010763D01*
X002708Y010813D01*
X002718Y010862D01*
X002731Y010911D01*
X002749Y010958D01*
X002770Y011004D01*
X002794Y011047D01*
X002822Y011089D01*
X002853Y011129D01*
X002887Y011166D01*
X002924Y011200D01*
X002964Y011231D01*
X003006Y011259D01*
X003049Y011283D01*
X003095Y011304D01*
X003142Y011322D01*
X003191Y011335D01*
X003240Y011345D01*
X003290Y011351D01*
X003340Y011353D01*
X003390Y011351D01*
X003440Y011345D01*
X003489Y011335D01*
X003538Y011322D01*
X003585Y011304D01*
X003631Y011283D01*
X003674Y011259D01*
X003716Y011231D01*
X003756Y011200D01*
X003793Y011166D01*
X003827Y011129D01*
X003858Y011089D01*
X003886Y011047D01*
X003910Y011004D01*
X003931Y010958D01*
X003949Y010911D01*
X003962Y010862D01*
X003972Y010813D01*
X003978Y010763D01*
X003980Y010713D01*
X003978Y010663D01*
X003972Y010613D01*
X003962Y010564D01*
X003949Y010515D01*
X003931Y010468D01*
X003910Y010422D01*
X003886Y010379D01*
X003858Y010337D01*
X003827Y010297D01*
X003793Y010260D01*
X003756Y010226D01*
X003716Y010195D01*
X003674Y010167D01*
X003631Y010143D01*
X003585Y010122D01*
X003538Y010104D01*
X003489Y010091D01*
X003440Y010081D01*
X003390Y010075D01*
X003340Y010073D01*
X003290Y010075D01*
X003240Y010081D01*
X003191Y010091D01*
X003142Y010104D01*
X003095Y010122D01*
X003049Y010143D01*
X003006Y010167D01*
X002964Y010195D01*
X002924Y010226D01*
X002887Y010260D01*
X002853Y010297D01*
X002822Y010337D01*
X002794Y010379D01*
X002770Y010422D01*
X002749Y010468D01*
X002731Y010515D01*
X002718Y010564D01*
X002708Y010613D01*
X002702Y010663D01*
X002700Y010713D01*
X002700Y014713D02*
X002702Y014763D01*
X002708Y014813D01*
X002718Y014862D01*
X002731Y014911D01*
X002749Y014958D01*
X002770Y015004D01*
X002794Y015047D01*
X002822Y015089D01*
X002853Y015129D01*
X002887Y015166D01*
X002924Y015200D01*
X002964Y015231D01*
X003006Y015259D01*
X003049Y015283D01*
X003095Y015304D01*
X003142Y015322D01*
X003191Y015335D01*
X003240Y015345D01*
X003290Y015351D01*
X003340Y015353D01*
X003390Y015351D01*
X003440Y015345D01*
X003489Y015335D01*
X003538Y015322D01*
X003585Y015304D01*
X003631Y015283D01*
X003674Y015259D01*
X003716Y015231D01*
X003756Y015200D01*
X003793Y015166D01*
X003827Y015129D01*
X003858Y015089D01*
X003886Y015047D01*
X003910Y015004D01*
X003931Y014958D01*
X003949Y014911D01*
X003962Y014862D01*
X003972Y014813D01*
X003978Y014763D01*
X003980Y014713D01*
X003978Y014663D01*
X003972Y014613D01*
X003962Y014564D01*
X003949Y014515D01*
X003931Y014468D01*
X003910Y014422D01*
X003886Y014379D01*
X003858Y014337D01*
X003827Y014297D01*
X003793Y014260D01*
X003756Y014226D01*
X003716Y014195D01*
X003674Y014167D01*
X003631Y014143D01*
X003585Y014122D01*
X003538Y014104D01*
X003489Y014091D01*
X003440Y014081D01*
X003390Y014075D01*
X003340Y014073D01*
X003290Y014075D01*
X003240Y014081D01*
X003191Y014091D01*
X003142Y014104D01*
X003095Y014122D01*
X003049Y014143D01*
X003006Y014167D01*
X002964Y014195D01*
X002924Y014226D01*
X002887Y014260D01*
X002853Y014297D01*
X002822Y014337D01*
X002794Y014379D01*
X002770Y014422D01*
X002749Y014468D01*
X002731Y014515D01*
X002718Y014564D01*
X002708Y014613D01*
X002702Y014663D01*
X002700Y014713D01*
X001940Y016963D02*
X001942Y017013D01*
X001948Y017063D01*
X001958Y017113D01*
X001971Y017161D01*
X001988Y017209D01*
X002009Y017255D01*
X002033Y017299D01*
X002061Y017341D01*
X002092Y017381D01*
X002126Y017418D01*
X002163Y017453D01*
X002202Y017484D01*
X002243Y017513D01*
X002287Y017538D01*
X002333Y017560D01*
X002380Y017578D01*
X002428Y017592D01*
X002477Y017603D01*
X002527Y017610D01*
X002577Y017613D01*
X002628Y017612D01*
X002678Y017607D01*
X002728Y017598D01*
X002776Y017586D01*
X002824Y017569D01*
X002870Y017549D01*
X002915Y017526D01*
X002958Y017499D01*
X002998Y017469D01*
X003036Y017436D01*
X003071Y017400D01*
X003104Y017361D01*
X003133Y017320D01*
X003159Y017277D01*
X003182Y017232D01*
X003201Y017185D01*
X003216Y017137D01*
X003228Y017088D01*
X003236Y017038D01*
X003240Y016988D01*
X003240Y016938D01*
X003236Y016888D01*
X003228Y016838D01*
X003216Y016789D01*
X003201Y016741D01*
X003182Y016694D01*
X003159Y016649D01*
X003133Y016606D01*
X003104Y016565D01*
X003071Y016526D01*
X003036Y016490D01*
X002998Y016457D01*
X002958Y016427D01*
X002915Y016400D01*
X002870Y016377D01*
X002824Y016357D01*
X002776Y016340D01*
X002728Y016328D01*
X002678Y016319D01*
X002628Y016314D01*
X002577Y016313D01*
X002527Y016316D01*
X002477Y016323D01*
X002428Y016334D01*
X002380Y016348D01*
X002333Y016366D01*
X002287Y016388D01*
X002243Y016413D01*
X002202Y016442D01*
X002163Y016473D01*
X002126Y016508D01*
X002092Y016545D01*
X002061Y016585D01*
X002033Y016627D01*
X002009Y016671D01*
X001988Y016717D01*
X001971Y016765D01*
X001958Y016813D01*
X001948Y016863D01*
X001942Y016913D01*
X001940Y016963D01*
X026940Y016963D02*
X026942Y017013D01*
X026948Y017063D01*
X026958Y017113D01*
X026971Y017161D01*
X026988Y017209D01*
X027009Y017255D01*
X027033Y017299D01*
X027061Y017341D01*
X027092Y017381D01*
X027126Y017418D01*
X027163Y017453D01*
X027202Y017484D01*
X027243Y017513D01*
X027287Y017538D01*
X027333Y017560D01*
X027380Y017578D01*
X027428Y017592D01*
X027477Y017603D01*
X027527Y017610D01*
X027577Y017613D01*
X027628Y017612D01*
X027678Y017607D01*
X027728Y017598D01*
X027776Y017586D01*
X027824Y017569D01*
X027870Y017549D01*
X027915Y017526D01*
X027958Y017499D01*
X027998Y017469D01*
X028036Y017436D01*
X028071Y017400D01*
X028104Y017361D01*
X028133Y017320D01*
X028159Y017277D01*
X028182Y017232D01*
X028201Y017185D01*
X028216Y017137D01*
X028228Y017088D01*
X028236Y017038D01*
X028240Y016988D01*
X028240Y016938D01*
X028236Y016888D01*
X028228Y016838D01*
X028216Y016789D01*
X028201Y016741D01*
X028182Y016694D01*
X028159Y016649D01*
X028133Y016606D01*
X028104Y016565D01*
X028071Y016526D01*
X028036Y016490D01*
X027998Y016457D01*
X027958Y016427D01*
X027915Y016400D01*
X027870Y016377D01*
X027824Y016357D01*
X027776Y016340D01*
X027728Y016328D01*
X027678Y016319D01*
X027628Y016314D01*
X027577Y016313D01*
X027527Y016316D01*
X027477Y016323D01*
X027428Y016334D01*
X027380Y016348D01*
X027333Y016366D01*
X027287Y016388D01*
X027243Y016413D01*
X027202Y016442D01*
X027163Y016473D01*
X027126Y016508D01*
X027092Y016545D01*
X027061Y016585D01*
X027033Y016627D01*
X027009Y016671D01*
X026988Y016717D01*
X026971Y016765D01*
X026958Y016813D01*
X026948Y016863D01*
X026942Y016913D01*
X026940Y016963D01*
X026940Y001963D02*
X026942Y002013D01*
X026948Y002063D01*
X026958Y002113D01*
X026971Y002161D01*
X026988Y002209D01*
X027009Y002255D01*
X027033Y002299D01*
X027061Y002341D01*
X027092Y002381D01*
X027126Y002418D01*
X027163Y002453D01*
X027202Y002484D01*
X027243Y002513D01*
X027287Y002538D01*
X027333Y002560D01*
X027380Y002578D01*
X027428Y002592D01*
X027477Y002603D01*
X027527Y002610D01*
X027577Y002613D01*
X027628Y002612D01*
X027678Y002607D01*
X027728Y002598D01*
X027776Y002586D01*
X027824Y002569D01*
X027870Y002549D01*
X027915Y002526D01*
X027958Y002499D01*
X027998Y002469D01*
X028036Y002436D01*
X028071Y002400D01*
X028104Y002361D01*
X028133Y002320D01*
X028159Y002277D01*
X028182Y002232D01*
X028201Y002185D01*
X028216Y002137D01*
X028228Y002088D01*
X028236Y002038D01*
X028240Y001988D01*
X028240Y001938D01*
X028236Y001888D01*
X028228Y001838D01*
X028216Y001789D01*
X028201Y001741D01*
X028182Y001694D01*
X028159Y001649D01*
X028133Y001606D01*
X028104Y001565D01*
X028071Y001526D01*
X028036Y001490D01*
X027998Y001457D01*
X027958Y001427D01*
X027915Y001400D01*
X027870Y001377D01*
X027824Y001357D01*
X027776Y001340D01*
X027728Y001328D01*
X027678Y001319D01*
X027628Y001314D01*
X027577Y001313D01*
X027527Y001316D01*
X027477Y001323D01*
X027428Y001334D01*
X027380Y001348D01*
X027333Y001366D01*
X027287Y001388D01*
X027243Y001413D01*
X027202Y001442D01*
X027163Y001473D01*
X027126Y001508D01*
X027092Y001545D01*
X027061Y001585D01*
X027033Y001627D01*
X027009Y001671D01*
X026988Y001717D01*
X026971Y001765D01*
X026958Y001813D01*
X026948Y001863D01*
X026942Y001913D01*
X026940Y001963D01*
D11*
X025570Y001503D02*
X025310Y001503D01*
X025223Y001417D01*
X025223Y001243D01*
X025310Y001156D01*
X025570Y001156D01*
X025570Y000983D02*
X025570Y001503D01*
X025397Y001156D02*
X025223Y000983D01*
X025054Y000983D02*
X024881Y000983D01*
X024968Y000983D02*
X024968Y001330D01*
X025054Y001330D01*
X024968Y001503D02*
X024968Y001590D01*
X024624Y001330D02*
X024711Y001243D01*
X024711Y001070D01*
X024624Y000983D01*
X024364Y000983D01*
X024195Y001070D02*
X024108Y000983D01*
X023848Y000983D01*
X023848Y001243D01*
X023935Y001330D01*
X024108Y001330D01*
X024108Y001156D02*
X023848Y001156D01*
X023679Y001156D02*
X023506Y001330D01*
X023419Y001330D01*
X023250Y001243D02*
X023163Y001330D01*
X022903Y001330D01*
X022903Y001503D02*
X022903Y000983D01*
X023163Y000983D01*
X023250Y001070D01*
X023250Y001243D01*
X023679Y001330D02*
X023679Y000983D01*
X024108Y001156D02*
X024195Y001070D01*
X024364Y001330D02*
X024624Y001330D01*
X022734Y001243D02*
X022734Y001070D01*
X022647Y000983D01*
X022474Y000983D01*
X022387Y001070D01*
X022387Y001243D01*
X022474Y001330D01*
X022647Y001330D01*
X022734Y001243D01*
X021703Y001243D02*
X021703Y001070D01*
X021616Y000983D01*
X021356Y000983D01*
X021356Y001503D01*
X021356Y001330D02*
X021616Y001330D01*
X021703Y001243D01*
X021187Y001070D02*
X021100Y001156D01*
X020840Y001156D01*
X020840Y001243D02*
X020840Y000983D01*
X021100Y000983D01*
X021187Y001070D01*
X021100Y001330D02*
X020927Y001330D01*
X020840Y001243D01*
X020156Y001330D02*
X020069Y001243D01*
X019896Y001243D01*
X019809Y001156D01*
X019809Y001070D01*
X019896Y000983D01*
X020069Y000983D01*
X020156Y001070D01*
X020156Y001330D02*
X020156Y001417D01*
X020069Y001503D01*
X019896Y001503D01*
X019809Y001417D01*
X019640Y001330D02*
X019553Y001330D01*
X019553Y000983D01*
X019467Y000983D02*
X019640Y000983D01*
X019296Y000983D02*
X019123Y000983D01*
X019210Y000983D02*
X019210Y001503D01*
X019296Y001503D01*
X019553Y001503D02*
X019553Y001590D01*
X018953Y001330D02*
X018779Y000983D01*
X018606Y001330D01*
X018350Y001330D02*
X018177Y001330D01*
X018090Y001243D01*
X018090Y000983D01*
X018350Y000983D01*
X018437Y001070D01*
X018350Y001156D01*
X018090Y001156D01*
X010570Y001156D02*
X010397Y001330D01*
X010310Y001330D01*
X010140Y001330D02*
X010054Y001330D01*
X009967Y001243D01*
X009880Y001330D01*
X009793Y001243D01*
X009793Y000983D01*
X009625Y000983D02*
X009625Y001503D01*
X009538Y001330D02*
X009364Y001330D01*
X009278Y001243D01*
X009278Y000983D01*
X009109Y000983D02*
X008849Y000983D01*
X008762Y001070D01*
X008849Y001156D01*
X009022Y001156D01*
X009109Y001243D01*
X009022Y001330D01*
X008762Y001330D01*
X008593Y001330D02*
X008507Y001330D01*
X008507Y000983D01*
X008593Y000983D02*
X008420Y000983D01*
X008250Y000983D02*
X008076Y000983D01*
X008163Y000983D02*
X008163Y001503D01*
X008250Y001503D01*
X008507Y001503D02*
X008507Y001590D01*
X007906Y001330D02*
X007732Y000983D01*
X007559Y001330D01*
X007303Y001330D02*
X007130Y001330D01*
X007043Y001243D01*
X007043Y000983D01*
X007303Y000983D01*
X007390Y001070D01*
X007303Y001156D01*
X007043Y001156D01*
X006875Y001070D02*
X006788Y001070D01*
X006788Y000983D01*
X006875Y000983D01*
X006875Y001070D01*
X006617Y001070D02*
X006530Y000983D01*
X006270Y000983D01*
X006101Y001070D02*
X006014Y000983D01*
X005841Y000983D01*
X005754Y001070D01*
X005754Y001243D01*
X005841Y001330D01*
X006014Y001330D01*
X006101Y001243D01*
X006101Y001070D01*
X006270Y001330D02*
X006530Y001330D01*
X006617Y001243D01*
X006617Y001070D01*
X005585Y000983D02*
X005585Y001330D01*
X005499Y001330D01*
X005412Y001243D01*
X005325Y001330D01*
X005239Y001243D01*
X005239Y000983D01*
X005412Y000983D02*
X005412Y001243D01*
X009538Y001330D02*
X009625Y001243D01*
X009967Y001243D02*
X009967Y000983D01*
X010140Y000983D02*
X010140Y001330D01*
X010570Y001330D02*
X010570Y000983D01*
X013157Y014983D02*
X013310Y014983D01*
X013387Y015060D01*
X013540Y014983D02*
X013847Y014983D01*
X013694Y014983D02*
X013694Y015443D01*
X013847Y015290D01*
X014001Y015366D02*
X014001Y015060D01*
X014077Y014983D01*
X014231Y014983D01*
X014308Y015060D01*
X014001Y015366D01*
X014077Y015443D01*
X014231Y015443D01*
X014308Y015366D01*
X014308Y015060D01*
X014461Y014983D02*
X014768Y014983D01*
X014461Y015290D01*
X014461Y015366D01*
X014538Y015443D01*
X014691Y015443D01*
X014768Y015366D01*
X015382Y015213D02*
X015689Y015213D01*
X016303Y014983D02*
X016610Y014983D01*
X016763Y014983D02*
X016917Y015136D01*
X016840Y015136D02*
X017070Y015136D01*
X017070Y014983D02*
X017070Y015443D01*
X016840Y015443D01*
X016763Y015366D01*
X016763Y015213D01*
X016840Y015136D01*
X016610Y015290D02*
X016456Y015443D01*
X016456Y014983D01*
X016554Y015983D02*
X016207Y015983D01*
X016039Y015983D02*
X015692Y015983D01*
X015523Y016070D02*
X015436Y015983D01*
X015263Y015983D01*
X015176Y016070D01*
X015007Y016070D02*
X014921Y015983D01*
X014747Y015983D01*
X014660Y016070D01*
X014660Y016156D01*
X014747Y016243D01*
X015007Y016243D01*
X015007Y016070D01*
X015007Y016243D02*
X014834Y016417D01*
X014660Y016503D01*
X014492Y016417D02*
X014405Y016503D01*
X014232Y016503D01*
X014145Y016417D01*
X014492Y016070D01*
X014405Y015983D01*
X014232Y015983D01*
X014145Y016070D01*
X014145Y016417D01*
X013976Y016503D02*
X013629Y016503D01*
X013629Y016417D01*
X013976Y016070D01*
X013976Y015983D01*
X014492Y016070D02*
X014492Y016417D01*
X015176Y016417D02*
X015263Y016503D01*
X015436Y016503D01*
X015523Y016417D01*
X015523Y016070D01*
X015865Y016243D02*
X016039Y016243D01*
X016039Y016503D02*
X016039Y015983D01*
X016554Y015983D02*
X016554Y016503D01*
X016723Y016503D02*
X017070Y016503D01*
X017070Y015983D01*
X016723Y015983D01*
X016897Y016243D02*
X017070Y016243D01*
X016039Y016503D02*
X015692Y016503D01*
X013461Y016243D02*
X013461Y016070D01*
X013374Y015983D01*
X013200Y015983D01*
X013114Y016070D01*
X013114Y016156D01*
X013200Y016243D01*
X013461Y016243D01*
X013287Y016417D01*
X013114Y016503D01*
X013157Y015443D02*
X013080Y015366D01*
X013080Y015290D01*
X013157Y015213D01*
X013080Y015136D01*
X013080Y015060D01*
X013157Y014983D01*
X013157Y015213D02*
X013233Y015213D01*
X013387Y015366D02*
X013310Y015443D01*
X013157Y015443D01*
D12*
X020356Y012028D02*
X020356Y011398D01*
X020513Y011240D01*
X020946Y011240D01*
X021734Y011240D02*
X022324Y011240D01*
X022324Y012185D01*
X021734Y012185D01*
X020946Y012185D02*
X020513Y012185D01*
X020356Y012028D01*
X021420Y010479D02*
X025299Y010479D01*
X025300Y010480D02*
X025320Y010475D01*
X025339Y010467D01*
X025357Y010456D01*
X025373Y010443D01*
X025386Y010427D01*
X025397Y010410D01*
X025405Y010391D01*
X025410Y010371D01*
X025412Y010350D01*
X025411Y010329D01*
X025410Y010329D02*
X025410Y009097D01*
X025408Y009074D01*
X025403Y009051D01*
X025394Y009029D01*
X025381Y009009D01*
X025366Y008991D01*
X025348Y008976D01*
X025328Y008963D01*
X025306Y008954D01*
X025283Y008949D01*
X025260Y008947D01*
X021420Y008947D01*
X021420Y008946D02*
X021396Y008951D01*
X021373Y008959D01*
X021352Y008970D01*
X021332Y008984D01*
X021314Y009001D01*
X021299Y009020D01*
X021286Y009041D01*
X021277Y009063D01*
X021271Y009087D01*
X021269Y009111D01*
X021270Y009136D01*
X021270Y009141D02*
X021270Y009473D01*
X021290Y009473D02*
X021320Y009475D01*
X021350Y009480D01*
X021379Y009489D01*
X021406Y009502D01*
X021432Y009517D01*
X021456Y009536D01*
X021477Y009557D01*
X021496Y009581D01*
X021511Y009607D01*
X021524Y009634D01*
X021533Y009663D01*
X021538Y009693D01*
X021540Y009723D01*
X021538Y009753D01*
X021533Y009783D01*
X021524Y009812D01*
X021511Y009839D01*
X021496Y009865D01*
X021477Y009889D01*
X021456Y009910D01*
X021432Y009929D01*
X021406Y009944D01*
X021379Y009957D01*
X021350Y009966D01*
X021320Y009971D01*
X021290Y009973D01*
X021270Y009973D02*
X021270Y010368D01*
X021269Y010369D02*
X021274Y010389D01*
X021282Y010408D01*
X021293Y010426D01*
X021306Y010442D01*
X021322Y010455D01*
X021339Y010466D01*
X021358Y010474D01*
X021378Y010479D01*
X021399Y010481D01*
X021420Y010480D01*
X022856Y011398D02*
X023013Y011240D01*
X023446Y011240D01*
X022856Y011398D02*
X022856Y012028D01*
X023013Y012185D01*
X023446Y012185D01*
X024234Y012185D02*
X024824Y012185D01*
X024824Y011240D01*
X024234Y011240D01*
X022405Y014069D02*
X021775Y014069D01*
X021775Y014070D02*
X021759Y014075D01*
X021743Y014083D01*
X021729Y014093D01*
X021717Y014105D01*
X021707Y014120D01*
X021700Y014136D01*
X021696Y014153D01*
X021695Y014170D01*
X021697Y014188D01*
X021697Y014738D02*
X021695Y014756D01*
X021696Y014773D01*
X021700Y014790D01*
X021707Y014806D01*
X021717Y014821D01*
X021729Y014833D01*
X021743Y014843D01*
X021759Y014851D01*
X021775Y014856D01*
X021775Y014857D02*
X022405Y014857D01*
X022405Y014856D02*
X022421Y014851D01*
X022437Y014843D01*
X022451Y014833D01*
X022463Y014821D01*
X022473Y014806D01*
X022480Y014790D01*
X022484Y014773D01*
X022485Y014756D01*
X022483Y014738D01*
X022483Y014188D02*
X022485Y014170D01*
X022484Y014153D01*
X022480Y014136D01*
X022473Y014120D01*
X022463Y014105D01*
X022451Y014093D01*
X022437Y014083D01*
X022421Y014075D01*
X022405Y014070D01*
X022405Y007947D02*
X021775Y007947D01*
X021618Y007790D01*
X021618Y007357D01*
X022562Y007357D02*
X022562Y007790D01*
X022405Y007947D01*
X022562Y006569D02*
X022562Y005979D01*
X021618Y005979D01*
X021618Y006569D01*
X015324Y001778D02*
X015167Y001935D01*
X014734Y001935D01*
X015324Y001778D02*
X015324Y001148D01*
X015167Y000990D01*
X014734Y000990D01*
X013946Y000990D02*
X013356Y000990D01*
X013356Y001935D01*
X013946Y001935D01*
D13*
X013752Y000914D02*
X013777Y000889D01*
X013777Y000789D01*
X013752Y000764D01*
X013702Y000764D01*
X013677Y000789D01*
X013630Y000764D02*
X013530Y000864D01*
X013530Y000889D01*
X013555Y000914D01*
X013605Y000914D01*
X013630Y000889D01*
X013677Y000889D02*
X013702Y000914D01*
X013752Y000914D01*
X013630Y000764D02*
X013530Y000764D01*
X013482Y000764D02*
X013382Y000864D01*
X013382Y000889D01*
X013407Y000914D01*
X013457Y000914D01*
X013482Y000889D01*
X013482Y000764D02*
X013382Y000764D01*
X016040Y001768D02*
X016140Y001768D01*
X016188Y001768D02*
X016288Y001768D01*
X016188Y001868D01*
X016188Y001893D01*
X016213Y001918D01*
X016263Y001918D01*
X016288Y001893D01*
X016335Y001893D02*
X016360Y001918D01*
X016410Y001918D01*
X016435Y001893D01*
X016435Y001793D01*
X016410Y001768D01*
X016360Y001768D01*
X016335Y001793D01*
X016140Y001868D02*
X016090Y001918D01*
X016090Y001768D01*
X017395Y001738D02*
X017545Y001738D01*
X017470Y001662D01*
X017470Y001763D01*
X017395Y001615D02*
X017395Y001515D01*
X017395Y001565D02*
X017545Y001565D01*
X017495Y001515D01*
X017520Y001468D02*
X017545Y001443D01*
X017545Y001393D01*
X017520Y001368D01*
X017420Y001368D01*
X017395Y001393D01*
X017395Y001443D01*
X017420Y001468D01*
X018385Y002876D02*
X018535Y002876D01*
X018535Y002951D01*
X018510Y002976D01*
X018460Y002976D01*
X018435Y002951D01*
X018435Y002876D01*
X018435Y002926D02*
X018385Y002976D01*
X018385Y003023D02*
X018385Y003123D01*
X018385Y003171D02*
X018485Y003271D01*
X018510Y003271D01*
X018535Y003246D01*
X018535Y003196D01*
X018510Y003171D01*
X018535Y003073D02*
X018385Y003073D01*
X018385Y003171D02*
X018385Y003271D01*
X018535Y003073D02*
X018485Y003023D01*
X013978Y004058D02*
X013928Y004058D01*
X013953Y004058D02*
X013953Y004208D01*
X013978Y004208D02*
X013928Y004208D01*
X013880Y004183D02*
X013880Y004083D01*
X013855Y004058D01*
X013805Y004058D01*
X013780Y004083D01*
X013732Y004058D02*
X013632Y004058D01*
X013682Y004058D02*
X013682Y004208D01*
X013732Y004158D01*
X013780Y004183D02*
X013805Y004208D01*
X013855Y004208D01*
X013880Y004183D01*
X012435Y005268D02*
X012435Y005418D01*
X012360Y005418D01*
X012335Y005393D01*
X012335Y005343D01*
X012360Y005318D01*
X012435Y005318D01*
X012385Y005318D02*
X012335Y005268D01*
X012288Y005268D02*
X012188Y005268D01*
X012140Y005268D02*
X012040Y005268D01*
X012090Y005268D02*
X012090Y005418D01*
X012140Y005368D01*
X012238Y005418D02*
X012238Y005268D01*
X012288Y005368D02*
X012238Y005418D01*
X022639Y005993D02*
X022664Y005968D01*
X022764Y005968D01*
X022789Y005993D01*
X022789Y006043D01*
X022764Y006068D01*
X022739Y006115D02*
X022789Y006165D01*
X022639Y006165D01*
X022639Y006115D02*
X022639Y006215D01*
X022664Y006262D02*
X022639Y006288D01*
X022639Y006338D01*
X022664Y006363D01*
X022689Y006363D01*
X022714Y006338D01*
X022714Y006262D01*
X022664Y006262D01*
X022714Y006262D02*
X022764Y006313D01*
X022789Y006363D01*
X022664Y006068D02*
X022639Y006043D01*
X022639Y005993D01*
X024032Y005633D02*
X024032Y005608D01*
X024057Y005583D01*
X024107Y005583D01*
X024132Y005608D01*
X024132Y005633D01*
X024107Y005658D01*
X024057Y005658D01*
X024032Y005633D01*
X024057Y005583D02*
X024032Y005558D01*
X024032Y005533D01*
X024057Y005508D01*
X024107Y005508D01*
X024132Y005533D01*
X024132Y005558D01*
X024107Y005583D01*
X024180Y005583D02*
X024205Y005558D01*
X024280Y005558D01*
X024280Y005508D02*
X024280Y005658D01*
X024205Y005658D01*
X024180Y005633D01*
X024180Y005583D01*
X024230Y005558D02*
X024180Y005508D01*
X024882Y006508D02*
X024882Y006533D01*
X024782Y006633D01*
X024782Y006658D01*
X024882Y006658D01*
X024930Y006633D02*
X024930Y006583D01*
X024955Y006558D01*
X025030Y006558D01*
X025030Y006508D02*
X025030Y006658D01*
X024955Y006658D01*
X024930Y006633D01*
X024980Y006558D02*
X024930Y006508D01*
X024810Y012262D02*
X024760Y012262D01*
X024735Y012287D01*
X024688Y012262D02*
X024588Y012262D01*
X024638Y012262D02*
X024638Y012412D01*
X024688Y012362D01*
X024735Y012387D02*
X024760Y012412D01*
X024810Y012412D01*
X024835Y012387D01*
X024835Y012287D01*
X024810Y012262D01*
X024540Y012287D02*
X024540Y012387D01*
X024515Y012412D01*
X024465Y012412D01*
X024440Y012387D01*
X024540Y012287D01*
X024515Y012262D01*
X024465Y012262D01*
X024440Y012287D01*
X024440Y012387D01*
X022335Y012387D02*
X022335Y012287D01*
X022310Y012262D01*
X022260Y012262D01*
X022235Y012287D01*
X022188Y012337D02*
X022088Y012337D01*
X022113Y012412D02*
X022188Y012337D01*
X022235Y012387D02*
X022260Y012412D01*
X022310Y012412D01*
X022335Y012387D01*
X022113Y012412D02*
X022113Y012262D01*
X022098Y014968D02*
X022098Y015118D01*
X022148Y015068D01*
X022195Y015118D02*
X022245Y015118D01*
X022220Y015118D02*
X022220Y014993D01*
X022245Y014968D01*
X022270Y014968D01*
X022295Y014993D01*
X022342Y014993D02*
X022367Y014968D01*
X022417Y014968D01*
X022442Y014993D01*
X022417Y015043D02*
X022367Y015043D01*
X022342Y015018D01*
X022342Y014993D01*
X022417Y015043D02*
X022442Y015068D01*
X022442Y015093D01*
X022417Y015118D01*
X022367Y015118D01*
X022342Y015093D01*
X022148Y014968D02*
X022048Y014968D01*
X008045Y016618D02*
X008045Y016693D01*
X008020Y016718D01*
X007970Y016718D01*
X007945Y016693D01*
X007945Y016618D01*
X007945Y016668D02*
X007895Y016718D01*
X007895Y016765D02*
X007895Y016865D01*
X007895Y016815D02*
X008045Y016815D01*
X007995Y016765D01*
X008020Y016912D02*
X008045Y016938D01*
X008045Y016988D01*
X008020Y017013D01*
X007995Y017013D01*
X007970Y016988D01*
X007945Y017013D01*
X007920Y017013D01*
X007895Y016988D01*
X007895Y016938D01*
X007920Y016912D01*
X007970Y016963D02*
X007970Y016988D01*
X007895Y016618D02*
X008045Y016618D01*
X006295Y016618D02*
X006295Y016693D01*
X006270Y016718D01*
X006220Y016718D01*
X006195Y016693D01*
X006195Y016618D01*
X006195Y016668D02*
X006145Y016718D01*
X006170Y016765D02*
X006145Y016790D01*
X006145Y016840D01*
X006170Y016865D01*
X006270Y016865D01*
X006295Y016840D01*
X006295Y016790D01*
X006270Y016765D01*
X006245Y016765D01*
X006220Y016790D01*
X006220Y016865D01*
X006145Y016618D02*
X006295Y016618D01*
D14*
X005840Y016963D03*
X007590Y016963D03*
X018840Y002963D03*
D15*
X021904Y009483D02*
X022051Y009483D01*
X021978Y009483D02*
X021978Y009703D01*
X022051Y009630D01*
X022125Y009703D02*
X022125Y009520D01*
X022162Y009483D01*
X022235Y009483D01*
X022272Y009520D01*
X022272Y009703D01*
D16*
X021190Y011313D02*
X021190Y012113D01*
X023690Y012113D02*
X023690Y011313D01*
X022490Y007113D02*
X021690Y007113D01*
X014490Y001863D02*
X014490Y001063D01*
D17*
X012090Y004963D03*
X024340Y005963D03*
X025090Y006963D03*
D18*
X017137Y005864D02*
X017137Y003561D01*
X013043Y003561D01*
X013043Y005864D01*
X017137Y005864D01*
X013246Y005481D02*
X013248Y005507D01*
X013254Y005533D01*
X013263Y005558D01*
X013276Y005581D01*
X013292Y005602D01*
X013311Y005620D01*
X013333Y005636D01*
X013356Y005648D01*
X013381Y005656D01*
X013407Y005661D01*
X013434Y005662D01*
X013460Y005659D01*
X013485Y005652D01*
X013510Y005642D01*
X013532Y005628D01*
X013553Y005611D01*
X013570Y005592D01*
X013585Y005570D01*
X013596Y005546D01*
X013604Y005520D01*
X013608Y005494D01*
X013608Y005468D01*
X013604Y005442D01*
X013596Y005416D01*
X013585Y005392D01*
X013570Y005370D01*
X013553Y005351D01*
X013532Y005334D01*
X013510Y005320D01*
X013485Y005310D01*
X013460Y005303D01*
X013434Y005300D01*
X013407Y005301D01*
X013381Y005306D01*
X013356Y005314D01*
X013333Y005326D01*
X013311Y005342D01*
X013292Y005360D01*
X013276Y005381D01*
X013263Y005404D01*
X013254Y005429D01*
X013248Y005455D01*
X013246Y005481D01*
D19*
X017078Y001713D02*
X017102Y001713D01*
X016090Y001475D02*
X016090Y001451D01*
M02*
